# xmcd
#
# Track frame offsets:
#	150
#	19205
#	34800
#	54215
#	71773
#	92435
#	110330
#	133765
#
# Disc length: 2087 seconds
#
# Revision: 0
# Processed by: cddbd v1.5.2PL0 Copyright (c) Steve Scherf et al.
# Submitted via: EasyCDDAExtractor 15.3.0.1
#
DISCID=64082508
DTITLE=Yuri - Brillantes
DYEAR=1994
DGENRE=Latin
TTITLE0=Mi Amor Es Para Ti
TTITLE1=Es Inutil Ya
TTITLE2=Yo Te Amare
TTITLE3=Sabes Lo Que Pasa
TTITLE4=Llevame A Tu Casa
TTITLE5=Para Quererte Mas
TTITLE6=Todo Mi Corazon
TTITLE7=Por Vivir
EXTD=
EXTT0=
EXTT1=
EXTT2=
EXTT3=
EXTT4=
EXTT5=
EXTT6=
EXTT7=
PLAYORDER=
